<svg width="248" height="82" viewBox="0 0 248 82" fill="none" xmlns="http://www.w3.org/2000/svg">
<g clip-path="url(#clip0_72_41)">
<path d="M46.8397 49.0131L10.8531 46.7611C9.38102 46.6786 7.99634 46.0357 6.98335 44.9643C5.97036 43.8929 5.40593 42.4744 5.40593 41C5.40593 39.5256 5.97036 38.1071 6.98335 37.0357C7.99634 35.9644 9.38102 35.3214 10.8531 35.2389L46.8487 32.9869C48.1445 32.9012 49.4281 33.2831 50.4664 34.0632L53.9031 36.6588C54.5771 37.1643 55.1241 37.8197 55.5008 38.5732C55.8776 39.3267 56.0737 40.1576 56.0737 41C56.0737 41.8425 55.8776 42.6733 55.5008 43.4268C55.1241 44.1803 54.5771 44.8357 53.9031 45.3412C50.7739 47.6836 49.3901 49.1397 46.8397 49.0131Z" fill="#F2EEFC"/>
<path d="M44.3164 25.6249L44.3164 18.3896L33.4635 18.3896L33.4635 25.6249L44.3164 25.6249Z" fill="#F2EEFC"/>
<path d="M28.7241 34.1175L20.8015 13.8677L28.8417 13.8677C29.4304 13.8687 30.0099 14.0134 30.5301 14.2893C31.0502 14.5651 31.4951 14.9637 31.8262 15.4504L43.9092 33.1678L28.7241 34.1175Z" fill="#F3EEF6"/>
<path d="M33.4634 56.3751L33.4634 63.6104L44.3163 63.6104L44.3163 56.3751L33.4634 56.3751Z" fill="#F2EEFC"/>
<path d="M28.7241 47.8826L20.8015 68.1323L28.8417 68.1323C29.4304 68.1313 30.0099 67.9866 30.5301 67.7108C31.0502 67.4349 31.4951 67.0364 31.8262 66.5496L43.9092 48.8322L28.7241 47.8826Z" fill="#F3EEF6"/>
<path d="M9.60465 35.456L5.42627 22.9118L8.73642 22.3601C9.37584 22.2534 10.0322 22.3206 10.6368 22.5544C11.2414 22.7883 11.772 23.1804 12.1732 23.6896L20.8013 34.6149C9.7584 35.3113 10.4186 35.2118 9.60465 35.456Z" fill="#F3EEF6"/>
<path d="M9.60465 46.5441L5.42627 59.0883L8.73642 59.6399C9.37584 59.7466 10.0322 59.6795 10.6368 59.4456C11.2414 59.2117 11.772 58.8197 12.1732 58.3105L20.8013 47.3852C9.7584 46.6888 10.4186 46.7883 9.60465 46.5441Z" fill="#F3EEF6"/>
<path d="M34.7836 65.4191L44.3161 65.4191C44.7959 65.4191 45.256 65.2286 45.5952 64.8893C45.9344 64.5501 46.125 64.09 46.125 63.6103L46.125 56.375C46.125 55.8953 45.9344 55.4352 45.5952 55.096C45.256 54.7568 44.7959 54.5662 44.3161 54.5662L42.1908 54.5662L44.8226 50.7044L46.7309 50.8219C50.1134 51.0299 51.9765 49.0131 54.9882 46.7883C55.8868 46.1143 56.6161 45.2404 57.1185 44.2357C57.6208 43.2311 57.8823 42.1233 57.8823 41C57.8823 39.8768 57.6208 38.769 57.1185 37.7643C56.6161 36.7596 55.8868 35.8857 54.9882 35.2118C51.8409 32.8603 50.023 30.9701 46.7309 31.1781L44.8226 31.2957L42.1908 27.4338L44.3161 27.4338C44.7959 27.4338 45.256 27.2433 45.5952 26.904C45.9344 26.5648 46.125 26.1047 46.125 25.625L46.125 18.3897C46.125 17.91 45.9344 17.4499 45.5952 17.1107C45.256 16.7715 44.7959 16.5809 44.3161 16.5809L34.7836 16.5809C33.3637 14.4917 32.1609 12.0588 28.8417 12.0588L20.8014 12.0588C20.3217 12.0588 19.8616 12.2494 19.5224 12.5886C19.1832 12.9278 18.9926 13.3879 18.9926 13.8677C18.9926 14.347 18.4771 12.8819 26.1375 32.4624L21.6154 32.7518L13.5661 22.5771C12.9641 21.811 12.1669 21.2212 11.2582 20.8695C10.3495 20.5178 9.3629 20.4172 8.40195 20.5784L5.12798 21.103C4.70162 21.1742 4.31489 21.3959 4.03783 21.7277C3.76077 22.0595 3.6117 22.4795 3.61761 22.9118C3.61761 23.3369 3.37343 22.4867 7.37093 34.4702C6.49554 34.9804 5.73148 35.6611 5.12405 36.4721C4.51661 37.283 4.07816 38.2077 3.83467 39.1912L1.80879 39.1912C1.32906 39.1912 0.868977 39.3818 0.529757 39.721C0.190537 40.0602 -3.3669e-05 40.5203 -3.369e-05 41C-3.3711e-05 41.4797 0.190537 41.9398 0.529757 42.279C0.868977 42.6183 1.32906 42.8088 1.80879 42.8088L3.83467 42.8088C4.07816 43.7924 4.51661 44.717 5.12405 45.528C5.73148 46.3389 6.49554 47.0197 7.37093 47.5299C3.43673 59.3415 3.61761 58.6541 3.61761 59.0883C3.61169 59.5205 3.76077 59.9405 4.03783 60.2724C4.31489 60.6042 4.70162 60.8258 5.12798 60.8971L8.43813 61.4488C9.39593 61.6001 10.3768 61.4919 11.2786 61.1356C12.1805 60.7794 12.9704 60.1879 13.5661 59.4229L21.5973 49.2483L26.1194 49.5377C18.4681 69.1453 18.9926 67.653 18.9926 68.1324C18.9926 68.6121 19.1832 69.0722 19.5224 69.4114C19.8616 69.7506 20.3217 69.9412 20.8014 69.9412L28.8417 69.9412C32.1428 69.9412 33.3275 67.5626 34.7836 65.4191ZM42.5073 58.1838L42.5073 61.8015L37.2527 61.8015L39.7217 58.1838L42.5073 58.1838ZM42.5073 20.1985L42.5073 23.8162L39.7217 23.8162L37.2527 20.1985L42.5073 20.1985ZM23.4514 15.6765L28.8778 15.6765C29.1718 15.6765 29.4613 15.7482 29.7213 15.8853C29.9813 16.0224 30.204 16.2208 30.3701 16.4633L40.6261 31.558L29.927 32.2272L23.4514 15.6765ZM7.81408 24.3498C8.9446 24.1599 9.97563 23.8071 10.7534 24.811L17.1838 33.0231C15.8814 33.1045 14.8956 33.1588 10.8077 33.421L7.81408 24.3498ZM7.67842 42.8088L14.4706 42.8088C14.9503 42.8088 15.4104 42.6183 15.7496 42.279C16.0888 41.9398 16.2794 41.4797 16.2794 41C16.2794 40.5203 16.0888 40.0602 15.7496 39.721C15.4104 39.3818 14.9503 39.1912 14.4706 39.1912L7.67842 39.1912C7.92634 38.7082 8.27111 38.2814 8.69125 37.9375C9.11138 37.5936 9.59785 37.34 10.1203 37.1924C10.9705 36.9573 8.91747 37.1924 46.957 34.7867C48.7116 34.6691 49.4803 35.5735 52.8176 38.1059C53.2669 38.4429 53.6316 38.8798 53.8828 39.3822C54.1339 39.8845 54.2647 40.4384 54.2647 41C54.2647 41.5616 54.1339 42.1155 53.8828 42.6179C53.6316 43.1202 53.2669 43.5572 52.8176 43.8941C49.7426 46.2094 48.7116 47.3309 46.957 47.2133C46.8666 47.2133 11.4046 44.9794 11.3142 44.9794C10.891 44.9881 10.4693 44.927 10.0661 44.7985C9.55518 44.6436 9.0806 44.3876 8.67046 44.0458C8.26033 43.7041 7.92298 43.2834 7.67842 42.8088ZM10.7534 57.189C9.97563 58.1929 8.9446 57.8402 7.81408 57.6502L10.8529 48.579C12.8336 48.7056 14.0455 48.778 17.229 48.9769L10.7534 57.189ZM23.4152 66.3235L29.927 49.7728L40.6261 50.4421L30.3339 65.5367C30.1679 65.7792 29.9452 65.9777 29.6851 66.1148C29.4251 66.2519 29.1356 66.3235 28.8417 66.3235L23.4152 66.3235Z" fill="#3F477A"/>
</g>
<path d="M68.2272 58L61.9459 26.7863H66.9941L71.1174 48.8671L74.9709 26.7863H80.1346L73.8534 58H68.2272ZM83.4728 58V26.7863H89.0989V58H83.4728ZM92.351 58L98.5937 26.7863H104.682L110.925 58H105.646L104.413 50.7939H98.9791L97.7074 58H92.351ZM99.5571 47.1715H103.796L101.677 34.0695L99.5571 47.1715ZM112.099 58.7707V54.763C112.921 54.763 113.602 54.7116 114.141 54.6089C114.681 54.5061 115.092 54.3263 115.374 54.0694C115.683 53.7868 115.901 53.3886 116.029 52.8748C116.158 52.3353 116.222 51.6545 116.222 50.8324V26.7863H121.887V51.0636C121.887 52.8106 121.681 54.2621 121.27 55.4181C120.859 56.5485 120.14 57.3963 119.112 57.9615C118.11 58.501 116.685 58.7707 114.835 58.7707H112.099ZM126.633 58V26.7863H139.735V30.794H132.337V39.7727H138.155V43.7419H132.337V54.0694H139.812V58H126.633ZM150.978 58.4239C149.102 58.4239 147.535 58.0642 146.276 57.3449C145.017 56.5999 144.067 55.5209 143.425 54.1079C142.782 52.695 142.423 50.9609 142.346 48.9056L147.24 47.9423C147.291 49.1497 147.432 50.2158 147.663 51.1407C147.92 52.0655 148.293 52.7849 148.781 53.2987C149.295 53.7868 149.963 54.0309 150.785 54.0309C151.71 54.0309 152.365 53.7611 152.75 53.2216C153.135 52.6564 153.328 51.9499 153.328 51.1022C153.328 49.7406 153.02 48.623 152.403 47.7496C151.787 46.8761 150.965 46.0026 149.937 45.1292L146.006 41.661C144.902 40.7104 144.015 39.6571 143.347 38.5011C142.705 37.3193 142.384 35.8678 142.384 34.1466C142.384 31.6803 143.103 29.7792 144.542 28.4433C145.981 27.1074 147.946 26.4395 150.438 26.4395C151.902 26.4395 153.123 26.6707 154.099 27.1331C155.075 27.5699 155.846 28.1864 156.411 28.9828C157.002 29.7792 157.439 30.6912 157.721 31.7188C158.004 32.7208 158.184 33.7869 158.261 34.9173L153.405 35.7651C153.354 34.7888 153.238 33.9154 153.058 33.1446C152.904 32.3739 152.609 31.7702 152.172 31.3335C151.761 30.8967 151.145 30.6784 150.322 30.6784C149.475 30.6784 148.82 30.961 148.357 31.5262C147.92 32.0657 147.702 32.7464 147.702 33.5685C147.702 34.6218 147.92 35.4953 148.357 36.1889C148.794 36.8569 149.423 37.5505 150.245 38.2699L154.137 41.6995C155.422 42.7785 156.514 44.0502 157.413 45.5145C158.338 46.9532 158.8 48.7001 158.8 50.7553C158.8 52.2454 158.466 53.5684 157.798 54.7245C157.156 55.8806 156.244 56.7926 155.062 57.4605C153.906 58.1028 152.545 58.4239 150.978 58.4239ZM170.559 58.4239C168.272 58.4239 166.474 57.9743 165.164 57.0751C163.879 56.176 162.98 54.9557 162.466 53.4143C161.953 51.8472 161.696 50.0489 161.696 48.0193V36.8826C161.696 34.7503 161.953 32.9006 162.466 31.3335C162.98 29.7664 163.879 28.5589 165.164 27.7112C166.474 26.8634 168.272 26.4395 170.559 26.4395C172.717 26.4395 174.4 26.812 175.607 27.557C176.84 28.2763 177.714 29.3168 178.227 30.6784C178.741 32.04 178.998 33.6199 178.998 35.4182V38.0386H173.526V35.3412C173.526 34.4677 173.475 33.6713 173.372 32.952C173.295 32.2326 173.051 31.6675 172.64 31.2564C172.254 30.8197 171.574 30.6013 170.597 30.6013C169.621 30.6013 168.902 30.8325 168.439 31.2949C168.003 31.7317 167.72 32.3354 167.592 33.1061C167.463 33.8511 167.399 34.6989 167.399 35.6495V49.2139C167.399 50.3443 167.489 51.282 167.669 52.027C167.849 52.7463 168.17 53.2987 168.632 53.684C169.12 54.0437 169.775 54.2235 170.597 54.2235C171.548 54.2235 172.216 54.0052 172.601 53.5684C173.012 53.106 173.269 52.5023 173.372 51.7573C173.475 51.0122 173.526 50.1773 173.526 49.2525V46.4394H178.998V48.9442C178.998 50.7939 178.754 52.4381 178.266 53.8767C177.778 55.2897 176.917 56.4072 175.684 57.2293C174.477 58.0257 172.768 58.4239 170.559 58.4239ZM183.046 58V26.7863H188.711V39.8498H195.069V26.7863H200.772V58H195.069V43.896H188.711V58H183.046ZM205.702 58V26.7863H211.329V58H205.702ZM216.16 58V26.7863H221.864V54.0694H229.417V58H216.16ZM232.38 58V26.7863H245.482V30.794H238.083V39.7727H243.902V43.7419H238.083V54.0694H245.559V58H232.38Z" fill="#3F477A"/>
<defs>
<clipPath id="clip0_72_41">
<rect width="57.8824" height="57.8824" fill="white" transform="translate(57.8823 12.0588) rotate(90)"/>
</clipPath>
</defs>
</svg>
