<svg width="248" height="82" viewBox="0 0 248 82" fill="none" xmlns="http://www.w3.org/2000/svg">
<g clip-path="url(#clip0_72_136)">
<path d="M34.7836 65.4189L44.3161 65.4189C44.7959 65.4189 45.256 65.2283 45.5952 64.8891C45.9344 64.5499 46.125 64.0898 46.125 63.6101L46.125 56.3748C46.125 55.895 45.9344 55.435 45.5952 55.0957C45.256 54.7565 44.7959 54.5659 44.3161 54.5659L42.1908 54.5659L44.8226 50.7041L46.7309 50.8217C50.1134 51.0297 51.9765 49.0129 54.9882 46.788C55.8868 46.1141 56.6161 45.2402 57.1185 44.2355C57.6208 43.2308 57.8823 42.123 57.8823 40.9998C57.8823 39.8765 57.6208 38.7687 57.1185 37.7641C56.6161 36.7594 55.8868 35.8855 54.9882 35.2115C51.8409 32.8601 50.023 30.9698 46.7309 31.1779L44.8226 31.2954L42.1908 27.4336L44.3161 27.4336C44.7959 27.4336 45.256 27.243 45.5952 26.9038C45.9344 26.5646 46.125 26.1045 46.125 25.6248L46.125 18.3895C46.125 17.9097 45.9344 17.4497 45.5952 17.1104C45.256 16.7712 44.7959 16.5807 44.3161 16.5807L34.7836 16.5807C33.3637 14.4915 32.1609 12.0586 28.8417 12.0586L20.8014 12.0586C20.3217 12.0586 19.8616 12.2492 19.5224 12.5884C19.1832 12.9276 18.9926 13.3877 18.9926 13.8674C18.9926 14.3468 18.4771 12.8816 26.1375 32.4621L21.6154 32.7515L13.5661 22.5769C12.9641 21.8108 12.1669 21.2209 11.2582 20.8692C10.3495 20.5175 9.3629 20.417 8.40195 20.5782L5.12798 21.1027C4.70162 21.174 4.31489 21.3956 4.03783 21.7274C3.76077 22.0592 3.6117 22.4793 3.61761 22.9115C3.61761 23.3366 3.37343 22.4865 7.37093 34.4699C6.49554 34.9801 5.73148 35.6609 5.12405 36.4718C4.51661 37.2828 4.07816 38.2074 3.83467 39.1909L1.80879 39.1909C1.32906 39.1909 0.868977 39.3815 0.529757 39.7207C0.190537 40.06 -3.3669e-05 40.52 -3.369e-05 40.9998C-3.3711e-05 41.4795 0.190537 41.9396 0.529757 42.2788C0.868977 42.618 1.32906 42.8086 1.80879 42.8086L3.83467 42.8086C4.07816 43.7921 4.51661 44.7168 5.12405 45.5277C5.73148 46.3387 6.49554 47.0194 7.37093 47.5296C3.43673 59.3412 3.61761 58.6539 3.61761 59.088C3.61169 59.5202 3.76077 59.9403 4.03783 60.2721C4.31489 60.6039 4.70162 60.8255 5.12798 60.8968L8.43813 61.4485C9.39593 61.5998 10.3768 61.4917 11.2786 61.1354C12.1805 60.7791 12.9704 60.1877 13.5661 59.4226L21.5973 49.248L26.1194 49.5374C18.4681 69.1451 18.9926 67.6528 18.9926 68.1321C18.9926 68.6119 19.1832 69.0719 19.5224 69.4112C19.8616 69.7504 20.3217 69.9409 20.8014 69.9409L28.8417 69.9409C32.1428 69.9409 33.3275 67.5623 34.7836 65.4189ZM42.5073 58.1836L42.5073 61.8012L37.2527 61.8012L39.7217 58.1836L42.5073 58.1836ZM42.5073 20.1983L42.5073 23.8159L39.7217 23.8159L37.2527 20.1983L42.5073 20.1983ZM23.4514 15.6762L28.8778 15.6762C29.1718 15.6763 29.4613 15.7479 29.7213 15.885C29.9813 16.0221 30.204 16.2205 30.3701 16.4631L40.6261 31.5577L29.927 32.227L23.4514 15.6762ZM7.81408 24.3495C8.9446 24.1596 9.97563 23.8069 10.7534 24.8108L17.1838 33.0229C15.8814 33.1043 14.8956 33.1585 10.8077 33.4208L7.81408 24.3495ZM7.67842 42.8086L14.4706 42.8086C14.9503 42.8086 15.4104 42.618 15.7496 42.2788C16.0888 41.9396 16.2794 41.4795 16.2794 40.9998C16.2794 40.52 16.0888 40.06 15.7496 39.7207C15.4104 39.3815 14.9503 39.1909 14.4706 39.1909L7.67842 39.1909C7.92634 38.7079 8.27111 38.2812 8.69125 37.9373C9.11138 37.5934 9.59785 37.3398 10.1203 37.1922C10.9705 36.9571 8.91747 37.1922 46.957 34.7865C48.7116 34.6689 49.4803 35.5733 52.8176 38.1057C53.2669 38.4426 53.6316 38.8796 53.8828 39.3819C54.1339 39.8842 54.2647 40.4381 54.2647 40.9998C54.2647 41.5614 54.1339 42.1153 53.8828 42.6176C53.6316 43.12 53.2669 43.5569 52.8176 43.8939C49.7426 46.2092 48.7116 47.3307 46.957 47.2131C46.8666 47.2131 11.4046 44.9792 11.3142 44.9792C10.891 44.9878 10.4693 44.9267 10.0661 44.7983C9.55518 44.6433 9.0806 44.3874 8.67046 44.0456C8.26033 43.7038 7.92298 43.2832 7.67842 42.8086ZM10.7534 57.1887C9.97563 58.1926 8.9446 57.8399 7.81408 57.65L10.8529 48.5787C12.8336 48.7054 14.0455 48.7777 17.229 48.9767L10.7534 57.1887ZM23.4152 66.3233L29.927 49.7726L40.6261 50.4418L30.3339 65.5365C30.1679 65.779 29.9452 65.9774 29.6851 66.1145C29.4251 66.2516 29.1356 66.3233 28.8417 66.3233L23.4152 66.3233Z" fill="white"/>
</g>
<path d="M68.2272 58L61.9459 26.7863H66.9941L71.1174 48.8671L74.9709 26.7863H80.1346L73.8534 58H68.2272ZM83.4728 58V26.7863H89.0989V58H83.4728ZM92.351 58L98.5937 26.7863H104.682L110.925 58H105.646L104.413 50.7939H98.9791L97.7074 58H92.351ZM99.5571 47.1715H103.796L101.677 34.0695L99.5571 47.1715ZM112.099 58.7707V54.763C112.921 54.763 113.602 54.7116 114.141 54.6089C114.681 54.5061 115.092 54.3263 115.374 54.0694C115.683 53.7868 115.901 53.3886 116.029 52.8748C116.158 52.3353 116.222 51.6545 116.222 50.8324V26.7863H121.887V51.0636C121.887 52.8106 121.681 54.2621 121.27 55.4181C120.859 56.5485 120.14 57.3963 119.112 57.9615C118.11 58.501 116.685 58.7707 114.835 58.7707H112.099ZM126.633 58V26.7863H139.735V30.794H132.337V39.7727H138.155V43.7419H132.337V54.0694H139.812V58H126.633ZM150.978 58.4239C149.102 58.4239 147.535 58.0642 146.276 57.3449C145.017 56.5999 144.067 55.5209 143.425 54.1079C142.782 52.695 142.423 50.9609 142.346 48.9056L147.24 47.9423C147.291 49.1497 147.432 50.2158 147.663 51.1407C147.92 52.0655 148.293 52.7849 148.781 53.2987C149.295 53.7868 149.963 54.0309 150.785 54.0309C151.71 54.0309 152.365 53.7611 152.75 53.2216C153.135 52.6564 153.328 51.9499 153.328 51.1022C153.328 49.7406 153.02 48.623 152.403 47.7496C151.787 46.8761 150.965 46.0026 149.937 45.1292L146.006 41.661C144.902 40.7104 144.015 39.6571 143.347 38.5011C142.705 37.3193 142.384 35.8678 142.384 34.1466C142.384 31.6803 143.103 29.7792 144.542 28.4433C145.981 27.1074 147.946 26.4395 150.438 26.4395C151.902 26.4395 153.123 26.6707 154.099 27.1331C155.075 27.5699 155.846 28.1864 156.411 28.9828C157.002 29.7792 157.439 30.6912 157.721 31.7188C158.004 32.7208 158.184 33.7869 158.261 34.9173L153.405 35.7651C153.354 34.7888 153.238 33.9154 153.058 33.1446C152.904 32.3739 152.609 31.7702 152.172 31.3335C151.761 30.8967 151.145 30.6784 150.322 30.6784C149.475 30.6784 148.82 30.961 148.357 31.5262C147.92 32.0657 147.702 32.7464 147.702 33.5685C147.702 34.6218 147.92 35.4953 148.357 36.1889C148.794 36.8569 149.423 37.5505 150.245 38.2699L154.137 41.6995C155.422 42.7785 156.514 44.0502 157.413 45.5145C158.338 46.9532 158.8 48.7001 158.8 50.7553C158.8 52.2454 158.466 53.5684 157.798 54.7245C157.156 55.8806 156.244 56.7926 155.062 57.4605C153.906 58.1028 152.545 58.4239 150.978 58.4239ZM170.559 58.4239C168.272 58.4239 166.474 57.9743 165.164 57.0751C163.879 56.176 162.98 54.9557 162.466 53.4143C161.953 51.8472 161.696 50.0489 161.696 48.0193V36.8826C161.696 34.7503 161.953 32.9006 162.466 31.3335C162.98 29.7664 163.879 28.5589 165.164 27.7112C166.474 26.8634 168.272 26.4395 170.559 26.4395C172.717 26.4395 174.4 26.812 175.607 27.557C176.84 28.2763 177.714 29.3168 178.227 30.6784C178.741 32.04 178.998 33.6199 178.998 35.4182V38.0386H173.526V35.3412C173.526 34.4677 173.475 33.6713 173.372 32.952C173.295 32.2326 173.051 31.6675 172.64 31.2564C172.254 30.8197 171.574 30.6013 170.597 30.6013C169.621 30.6013 168.902 30.8325 168.439 31.2949C168.003 31.7317 167.72 32.3354 167.592 33.1061C167.463 33.8511 167.399 34.6989 167.399 35.6495V49.2139C167.399 50.3443 167.489 51.282 167.669 52.027C167.849 52.7463 168.17 53.2987 168.632 53.684C169.12 54.0437 169.775 54.2235 170.597 54.2235C171.548 54.2235 172.216 54.0052 172.601 53.5684C173.012 53.106 173.269 52.5023 173.372 51.7573C173.475 51.0122 173.526 50.1773 173.526 49.2525V46.4394H178.998V48.9442C178.998 50.7939 178.754 52.4381 178.266 53.8767C177.778 55.2897 176.917 56.4072 175.684 57.2293C174.477 58.0257 172.768 58.4239 170.559 58.4239ZM183.046 58V26.7863H188.711V39.8498H195.069V26.7863H200.772V58H195.069V43.896H188.711V58H183.046ZM205.702 58V26.7863H211.329V58H205.702ZM216.16 58V26.7863H221.864V54.0694H229.417V58H216.16ZM232.38 58V26.7863H245.482V30.794H238.083V39.7727H243.902V43.7419H238.083V54.0694H245.559V58H232.38Z" fill="white"/>
<defs>
<clipPath id="clip0_72_136">
<rect width="57.8824" height="57.8824" fill="white" transform="translate(57.8823 12.0586) rotate(90)"/>
</clipPath>
</defs>
</svg>
